Coordinates
version=1
nRows=21
nColumns=12
inDegrees=yes

Units are S.I. units (second, meters, Newtons, ...)
Angles are in degrees

endheader
time	SC_y	SC_z	SC_x	AC_y	AC_z	AC_x	GH_y	GH_z	GH_yy	EL_x	PS_y
       0.0              -17.36          27.15           71.2           51.7         -18.61          5.692          51.65          56.89          96.44          8.315          108.7
   0.04567              -17.36          27.15           71.2           51.7         -18.61          5.691          51.63           56.9          96.41          8.325          108.7
   0.09133              -17.36          27.15           71.2           51.7         -18.61           5.69           51.6           56.9          96.37          8.336          108.7
     0.137              -17.36          27.15           71.2           51.7          -18.6          5.689          51.56          56.91          96.34          8.348          108.7
    0.1827              -17.36          27.15           71.2           51.7          -18.6          5.688          51.53          56.91           96.3           8.36          108.7
    0.2283              -17.36          27.15          71.19           51.7          -18.6          5.687          51.49          56.92          96.26          8.373          108.7
     0.274              -17.36          27.15          71.19           51.7         -18.59          5.685          51.45          56.93          96.21          8.386          108.7
    0.3197              -17.36          27.15          71.19           51.7         -18.59          5.684          51.41          56.93          96.17          8.401          108.7
    0.3653              -17.35          27.15          71.19          51.69         -18.58          5.683          51.37          56.94          96.12          8.417          108.7
     0.411              -17.35          27.15          71.19          51.69         -18.58          5.681          51.32          56.95          96.06          8.434          108.7
    0.4567              -17.35          27.15          71.19          51.69         -18.57           5.68          51.27          56.96          96.01          8.452          108.7
    0.5023              -17.35          27.15          71.18          51.69         -18.57          5.678          51.22          56.97          95.94          8.472          108.7
     0.548              -17.35          27.14          71.18          51.69         -18.56          5.676          51.16          56.98          95.88          8.493          108.7
    0.5937              -17.35          27.14          71.18          51.69         -18.55          5.674          51.09          56.99           95.8          8.516          108.7
    0.6393              -17.34          27.14          71.18          51.69         -18.54          5.672          51.02           57.0          95.73           8.54          108.7
     0.685              -17.34          27.14          71.18          51.68         -18.54           5.67          50.95          57.01          95.64          8.567          108.7
    0.7307              -17.34          27.14          71.17          51.68         -18.53          5.667          50.87          57.03          95.55          8.596          108.7
    0.7763              -17.34          27.14          71.17          51.68         -18.52          5.664          50.78          57.04          95.45          8.628          108.7
     0.822              -17.34          27.14          71.17          51.68         -18.51          5.661          50.68          57.06          95.34          8.663          108.7
    0.8677              -17.33          27.14          71.16          51.67          -18.5          5.658          50.57          57.07          95.22          8.701          108.7
    0.9133              -17.33          27.14          71.16          51.67         -18.48          5.654          50.46          57.09          95.09          8.742          108.7
